name rise30.2954peak35.7071fall66.7804.mot
datacolumns 19
datarows 17
range 21.75158900000000 21.77825700000000
endheader
time	ground_force1_vx	ground_force1_vy	ground_force1_vz	ground_force1_px	ground_force1_py	ground_force1_pz	ground_force2_vx	ground_force2_vy	ground_force2_vz	ground_force2_px	ground_force2_py	ground_force2_pz	ground_torque1_x	ground_torque1_y	ground_torque1_z	ground_torque2_x	ground_torque2_y	ground_torque2_z	
21.75158900000000	-4.25410300000000	42.56655700000000	-8.62333000000000	0.24648100000000	0.00000000000000	0.11129800000000	-46.27852300000000	802.79063399999995	-49.52308000000000	0.08116100000000	0.00000000000000	-0.06278900000000	0.00000000000000	-4.73315200000000	0.00000000000000	0.00000000000000	-14.05792300000000	0.00000000000000	
21.75325400000000	-4.60039100000000	50.14967000000000	-9.70476900000000	0.25534400000000	0.00000000000000	0.11207400000000	-46.95352900000000	800.62497599999995	-49.17588100000000	0.08047400000000	0.00000000000000	-0.06267700000000	0.00000000000000	-5.44686200000000	0.00000000000000	0.00000000000000	-14.00230400000000	0.00000000000000	
21.75492600000000	-4.84500900000000	57.89219300000000	-10.68877100000000	0.26308700000000	0.00000000000000	0.11277000000000	-47.64067200000000	798.31163100000003	-48.80908400000000	0.07979000000000	0.00000000000000	-0.06256200000000	0.00000000000000	-6.12408600000000	0.00000000000000	0.00000000000000	-13.94831900000000	0.00000000000000	
21.75659000000000	-4.97470200000000	65.69798600000000	-11.55189800000000	0.26991100000000	0.00000000000000	0.11340100000000	-48.33965500000000	795.84678399999996	-48.42266000000000	0.07911100000000	0.00000000000000	-0.06244400000000	0.00000000000000	-6.74903800000000	0.00000000000000	0.00000000000000	-13.89600100000000	0.00000000000000	
21.75826400000000	-4.98130300000000	73.49205300000000	-12.27828100000000	0.27597000000000	0.00000000000000	0.11397900000000	-49.05007500000000	793.22660499999995	-48.01659500000000	0.07843500000000	0.00000000000000	-0.06232400000000	0.00000000000000	-7.31020900000000	0.00000000000000	0.00000000000000	-13.84536800000000	0.00000000000000	
21.75992300000000	-4.86165600000000	81.22307700000000	-12.85975100000000	0.28138700000000	0.00000000000000	0.11451200000000	-49.77142200000000	790.44725500000004	-47.59088800000000	0.07776400000000	0.00000000000000	-0.06220000000000	0.00000000000000	-7.80061800000000	0.00000000000000	0.00000000000000	-13.79642000000000	0.00000000000000	
21.76159900000000	-4.61713300000000	88.86359100000000	-13.29532400000000	0.28626100000000	0.00000000000000	0.11500600000000	-50.50307300000000	787.50490300000001	-47.14555200000000	0.07709600000000	0.00000000000000	-0.06207500000000	0.00000000000000	-8.21764500000000	0.00000000000000	0.00000000000000	-13.74913900000000	0.00000000000000	
21.76325800000000	-4.25287800000000	96.40814000000000	-13.59018300000000	0.29067100000000	0.00000000000000	0.11546800000000	-51.24429300000000	784.39573900000005	-46.68061700000000	0.07643200000000	0.00000000000000	-0.06194600000000	0.00000000000000	-8.56253800000000	0.00000000000000	0.00000000000000	-13.70348800000000	0.00000000000000	
21.76492200000000	-3.77687200000000	103.86996499999999	-13.75433600000000	0.29468000000000	0.00000000000000	0.11590100000000	-51.99423300000000	781.11598500000002	-46.19613100000000	0.07577200000000	0.00000000000000	-0.06181600000000	0.00000000000000	-8.83969100000000	0.00000000000000	0.00000000000000	-13.65941200000000	0.00000000000000	
21.76658700000000	-3.19893700000000	111.27671599999999	-13.80111700000000	0.29834400000000	0.00000000000000	0.11630900000000	-52.75192900000000	777.66191600000002	-45.69215900000000	0.07511700000000	0.00000000000000	-0.06168200000000	0.00000000000000	-9.05577900000000	0.00000000000000	0.00000000000000	-13.61684000000000	0.00000000000000	
21.76825200000000	-2.52976700000000	118.66573400000000	-13.74567000000000	0.30170500000000	0.00000000000000	0.11669500000000	-53.51630000000000	774.02987199999995	-45.16878900000000	0.07446600000000	0.00000000000000	-0.06154600000000	0.00000000000000	-9.21887400000000	0.00000000000000	0.00000000000000	-13.57567900000000	0.00000000000000	
21.76992000000000	-1.78005600000000	126.07936300000000	-13.60356000000000	0.30480100000000	0.00000000000000	0.11706200000000	-54.28615200000000	770.21627599999999	-44.62612700000000	0.07381900000000	0.00000000000000	-0.06140800000000	0.00000000000000	-9.33759100000000	0.00000000000000	0.00000000000000	-13.53582100000000	0.00000000000000	
21.77158900000000	-0.95978900000000	133.56065000000001	-13.38958600000000	0.30766400000000	0.00000000000000	0.11741300000000	-55.06017500000000	766.21765200000004	-44.06430500000000	0.07317800000000	0.00000000000000	-0.06126700000000	0.00000000000000	-9.42034300000000	0.00000000000000	0.00000000000000	-13.49713800000000	0.00000000000000	
21.77325100000000	-0.07771400000000	141.14971199999999	-13.11686400000000	0.31032000000000	0.00000000000000	0.11774800000000	-55.83694900000000	762.03064099999995	-43.48347900000000	0.07254100000000	0.00000000000000	-0.06112300000000	0.00000000000000	-9.47474900000000	0.00000000000000	0.00000000000000	-13.45948500000000	0.00000000000000	
21.77491800000000	0.85899500000000	148.88093300000000	-12.79619700000000	0.31279100000000	0.00000000000000	0.11806900000000	-56.61494300000000	757.65202399999998	-42.88383200000000	0.07191000000000	0.00000000000000	-0.06097700000000	0.00000000000000	-9.50720000000000	0.00000000000000	0.00000000000000	-13.42270200000000	0.00000000000000	
21.77658500000000	1.84489000000000	156.78106500000001	-12.43573000000000	0.31509600000000	0.00000000000000	0.11837800000000	-57.39251900000000	753.07873800000004	-42.26557400000000	0.07128500000000	0.00000000000000	-0.06082800000000	0.00000000000000	-9.52260500000000	0.00000000000000	0.00000000000000	-13.38661000000000	0.00000000000000	
21.77825700000000	2.87623400000000	164.86819900000000	-12.04088200000000	0.31725300000000	0.00000000000000	0.11867500000000	-58.16793400000000	748.30789800000002	-41.62894600000000	0.07066600000000	0.00000000000000	-0.06067700000000	0.00000000000000	-9.52429400000000	0.00000000000000	0.00000000000000	-13.35101400000000	0.00000000000000	
